###

The Vampire Diaries S02E14 HDTV XviD-2HD

###
 
http://www.tvrage.com/The_Vampire_Diaries

###

Stefan and Elena get away for what they hope will be a romantic weekend at the Gilbert family lake house, not realizing that they've been followed. Jenna starts to worry that Alaric isn't being honest with her. Jules explains the importance of the sun and moon curse to Tyler, but leaves out an important detail. Damon attends a tea at the Historical Society in order to talk to Elijah, but Elijah isn't giving up any secrets. With help from Caroline and Jeremy, Bonnie uses deceptive measures to get shocking new information out of Luka. Finally, Tyler offers Matt some relationship advice. 

###

[CODE]
Format                           : AVI
Format/Info                      : Audio Video Interleave
File size                        : 350 MiB
Duration                         : 41mn 19s
Overall bit rate                 : 1 185 Kbps
Writing application              : MEncoder SVN-r32669-4.3.2
Writing library                  : MPlayer

Video
ID                               : 0
Format                           : MPEG-4 Visual
Format profile                   : Advanced Simple@L5
Format settings, BVOP            : 1
Format settings, QPel            : No
Format settings, GMC             : No warppoints
Format settings, Matrix          : Default (H.263)
Codec ID                         : XVID
Codec ID/Hint                    : XviD
Duration                         : 41mn 19s
Bit rate                         : 1 045 Kbps
Width                            : 624 pixels
Height                           : 352 pixels
Display aspect ratio             : 16:9
Frame rate                       : 23.976 fps
Color space                      : YUV
Chroma subsampling               : 4:2:0
Bit depth                        : 8 bits
Scan type                        : Progressive
Compression mode                 : Lossy
Bits/(Pixel*Frame)               : 0.198
Stream size                      : 309 MiB (88%)
Writing library                  : XviD 1.2.1 (UTC 2008-12-04)

Audio
ID                               : 1
Format                           : MPEG Audio
Format version                   : Version 1
Format profile                   : Layer 3
Mode                             : Joint stereo
Mode extension                   : MS Stereo
Codec ID                         : 55
Codec ID/Hint                    : MP3
Duration                         : 41mn 19s
Bit rate mode                    : Variable
Bit rate                         : 128 Kbps
Channel(s)                       : 2 channels
Sampling rate                    : 48.0 KHz
Compression mode                 : Lossy
Stream size                      : 37.6 MiB (11%)
Alignment                        : Aligned on interleaves
Interleave, duration             : 24 ms (0.58 video frame)
Interleave, preload duration     : 516 ms
[/CODE]
